<mxfile modified="2021-06-24T09:59:19.846Z" host="app.diagrams.net" agent="5.0 (Windows NT 10.0; WOW64) AppleWebKit/537.36 (KHTML, like Gecko) Chrome/79.0.3945.79 Safari/537.36" etag="FbaikyJuKERJx07-TGt3" version="14.8.0" type="github">
  <diagram id="Ht1M8jgEwFfnCIfOTk4-" name="Page-1">
    <mxGraphModel dx="1283" dy="772" grid="0" gridSize="10" guides="1" tooltips="1" connect="1" arrows="1" fold="1" page="1" pageScale="1" pageWidth="1169" pageHeight="827" math="0" shadow="0">
      <root>
        <mxCell id="0" />
        <mxCell id="1" parent="0" />
        <mxCell id="YC4KUCPlz97BvsWAq6QE-86" style="edgeStyle=none;rounded=0;sketch=0;orthogonalLoop=1;jettySize=auto;html=1;entryX=0.625;entryY=0.2;entryDx=0;entryDy=0;entryPerimeter=0;shadow=1;fontSize=19;strokeWidth=3;" edge="1" parent="1" source="YC4KUCPlz97BvsWAq6QE-77" target="YC4KUCPlz97BvsWAq6QE-78">
          <mxGeometry relative="1" as="geometry" />
        </mxCell>
        <mxCell id="YC4KUCPlz97BvsWAq6QE-88" value="推送数据" style="edgeLabel;html=1;align=center;verticalAlign=middle;resizable=0;points=[];fontSize=19;fontStyle=1" vertex="1" connectable="0" parent="YC4KUCPlz97BvsWAq6QE-86">
          <mxGeometry x="-0.6949" y="-1" relative="1" as="geometry">
            <mxPoint as="offset" />
          </mxGeometry>
        </mxCell>
        <mxCell id="YC4KUCPlz97BvsWAq6QE-77" value="" style="ellipse;shape=cloud;whiteSpace=wrap;html=1;rounded=1;glass=0;sketch=0;fontSize=17;fillColor=#ffe6cc;strokeColor=#d79b00;shadow=1;" vertex="1" parent="1">
          <mxGeometry x="264" y="36" width="638" height="532" as="geometry" />
        </mxCell>
        <mxCell id="YC4KUCPlz97BvsWAq6QE-39" style="rounded=0;orthogonalLoop=1;jettySize=auto;html=1;fontSize=17;strokeWidth=3;shadow=1;sketch=0;entryX=0.16;entryY=0.55;entryDx=0;entryDy=0;entryPerimeter=0;" edge="1" parent="1" source="YC4KUCPlz97BvsWAq6QE-35" target="YC4KUCPlz97BvsWAq6QE-77">
          <mxGeometry relative="1" as="geometry">
            <mxPoint x="352" y="377.1999999999998" as="targetPoint" />
          </mxGeometry>
        </mxCell>
        <mxCell id="YC4KUCPlz97BvsWAq6QE-76" style="edgeStyle=none;rounded=0;orthogonalLoop=1;jettySize=auto;html=1;entryX=0.07;entryY=0.4;entryDx=0;entryDy=0;fontSize=17;entryPerimeter=0;strokeWidth=3;shadow=1;" edge="1" parent="1" source="YC4KUCPlz97BvsWAq6QE-35" target="YC4KUCPlz97BvsWAq6QE-78">
          <mxGeometry relative="1" as="geometry">
            <mxPoint x="143" y="855" as="targetPoint" />
          </mxGeometry>
        </mxCell>
        <mxCell id="YC4KUCPlz97BvsWAq6QE-35" value="设备产商" style="shadow=1;dashed=0;html=1;strokeColor=none;fillColor=#4495D1;labelPosition=center;verticalLabelPosition=bottom;verticalAlign=top;align=center;outlineConnect=0;shape=mxgraph.veeam.company_user;fontSize=18;fontStyle=1" vertex="1" parent="1">
          <mxGeometry x="93" y="459" width="136" height="123" as="geometry" />
        </mxCell>
        <mxCell id="YC4KUCPlz97BvsWAq6QE-47" value="产品开发" style="verticalAlign=top;fontStyle=1;fontSize=21;shadow=1;rounded=1;glass=0;sketch=0;fillColor=#ffe6cc;strokeColor=#d79b00;" vertex="1" parent="1">
          <mxGeometry x="383" y="175" width="114" height="153.75" as="geometry" />
        </mxCell>
        <mxCell id="YC4KUCPlz97BvsWAq6QE-48" value="功能定义" style="rounded=1;whiteSpace=wrap;html=1;fontSize=18;fontStyle=1;fillColor=#e3c800;strokeColor=#B09500;fontColor=#000000;shadow=1;glass=0;sketch=0;" vertex="1" parent="1">
          <mxGeometry x="390" y="221.29999999999995" width="45" height="44" as="geometry" />
        </mxCell>
        <mxCell id="YC4KUCPlz97BvsWAq6QE-49" value="设备面板" style="rounded=1;whiteSpace=wrap;html=1;fontSize=18;fontStyle=1;fillColor=#e3c800;strokeColor=#B09500;fontColor=#000000;shadow=1;glass=0;sketch=0;" vertex="1" parent="1">
          <mxGeometry x="446.38" y="221.29999999999995" width="44.18" height="44" as="geometry" />
        </mxCell>
        <mxCell id="YC4KUCPlz97BvsWAq6QE-50" value="产品配置" style="rounded=1;whiteSpace=wrap;html=1;fontSize=18;fontStyle=1;fillColor=#e3c800;strokeColor=#B09500;fontColor=#000000;shadow=1;glass=0;sketch=0;" vertex="1" parent="1">
          <mxGeometry x="388" y="275.75" width="44" height="44" as="geometry" />
        </mxCell>
        <mxCell id="YC4KUCPlz97BvsWAq6QE-51" value="APP开发" style="verticalAlign=top;fontStyle=1;fontSize=21;shadow=1;rounded=1;glass=0;sketch=0;fillColor=#ffe6cc;strokeColor=#d79b00;" vertex="1" parent="1">
          <mxGeometry x="513.28" y="175" width="132.72" height="153.75" as="geometry" />
        </mxCell>
        <mxCell id="YC4KUCPlz97BvsWAq6QE-52" value="APP SDK" style="rounded=1;whiteSpace=wrap;html=1;fontSize=18;fontStyle=1;fillColor=#e3c800;strokeColor=#B09500;fontColor=#000000;shadow=1;glass=0;sketch=0;" vertex="1" parent="1">
          <mxGeometry x="521" y="214.43000000000006" width="50" height="44" as="geometry" />
        </mxCell>
        <mxCell id="YC4KUCPlz97BvsWAq6QE-53" value="小程序&amp;nbsp;SDK" style="rounded=1;whiteSpace=wrap;html=1;fontSize=18;fontStyle=1;fillColor=#e3c800;strokeColor=#B09500;fontColor=#000000;shadow=1;glass=0;sketch=0;" vertex="1" parent="1">
          <mxGeometry x="579" y="216.18000000000006" width="58" height="44" as="geometry" />
        </mxCell>
        <mxCell id="YC4KUCPlz97BvsWAq6QE-54" value="定制APP" style="rounded=1;whiteSpace=wrap;html=1;fontSize=18;fontStyle=1;fillColor=#e3c800;strokeColor=#B09500;fontColor=#000000;shadow=1;glass=0;sketch=0;" vertex="1" parent="1">
          <mxGeometry x="580" y="270.18000000000006" width="55" height="44" as="geometry" />
        </mxCell>
        <mxCell id="YC4KUCPlz97BvsWAq6QE-55" value="公版APP" style="rounded=1;whiteSpace=wrap;html=1;fontSize=18;fontStyle=1;fillColor=#e3c800;strokeColor=#B09500;fontColor=#000000;shadow=1;glass=0;sketch=0;" vertex="1" parent="1">
          <mxGeometry x="522.21" y="270.18000000000006" width="47.57" height="44" as="geometry" />
        </mxCell>
        <mxCell id="YC4KUCPlz97BvsWAq6QE-56" value="云开发" style="verticalAlign=top;fontStyle=1;fontSize=21;shadow=1;rounded=1;glass=0;sketch=0;fillColor=#ffe6cc;strokeColor=#d79b00;" vertex="1" parent="1">
          <mxGeometry x="661" y="175" width="139" height="150.88" as="geometry" />
        </mxCell>
        <mxCell id="YC4KUCPlz97BvsWAq6QE-57" value="全屋智能API" style="rounded=1;whiteSpace=wrap;html=1;fontSize=18;fontStyle=1;fillColor=#e3c800;strokeColor=#B09500;fontColor=#000000;shadow=1;glass=0;sketch=0;" vertex="1" parent="1">
          <mxGeometry x="670" y="218" width="56" height="44" as="geometry" />
        </mxCell>
        <mxCell id="YC4KUCPlz97BvsWAq6QE-58" value="通用基础API" style="rounded=1;whiteSpace=wrap;html=1;fontSize=18;fontStyle=1;fillColor=#e3c800;strokeColor=#B09500;fontColor=#000000;shadow=1;glass=0;sketch=0;" vertex="1" parent="1">
          <mxGeometry x="671" y="270" width="58" height="44" as="geometry" />
        </mxCell>
        <mxCell id="YC4KUCPlz97BvsWAq6QE-59" value="数据推送" style="rounded=1;whiteSpace=wrap;html=1;fontSize=18;fontStyle=1;fillColor=#e3c800;strokeColor=#B09500;fontColor=#000000;shadow=1;glass=0;sketch=0;" vertex="1" parent="1">
          <mxGeometry x="738.5" y="270" width="50" height="44" as="geometry" />
        </mxCell>
        <mxCell id="YC4KUCPlz97BvsWAq6QE-60" value="行业通用API" style="rounded=1;whiteSpace=wrap;html=1;fontSize=18;fontStyle=1;fillColor=#e3c800;strokeColor=#B09500;fontColor=#000000;shadow=1;glass=0;sketch=0;" vertex="1" parent="1">
          <mxGeometry x="735" y="218" width="57" height="44" as="geometry" />
        </mxCell>
        <mxCell id="YC4KUCPlz97BvsWAq6QE-61" value="设备管理" style="rounded=1;whiteSpace=wrap;html=1;fontSize=18;fontStyle=1;fillColor=#e3c800;strokeColor=#B09500;fontColor=#000000;shadow=1;glass=0;sketch=0;" vertex="1" parent="1">
          <mxGeometry x="444" y="278.18000000000006" width="44.18" height="44" as="geometry" />
        </mxCell>
        <mxCell id="YC4KUCPlz97BvsWAq6QE-62" value="数据" style="verticalAlign=top;fontStyle=1;fontSize=21;shadow=1;rounded=1;glass=0;sketch=0;fillColor=#fff2cc;strokeColor=#d6b656;" vertex="1" parent="1">
          <mxGeometry x="486" y="340" width="123" height="150.88" as="geometry" />
        </mxCell>
        <mxCell id="YC4KUCPlz97BvsWAq6QE-63" value="数据概况" style="rounded=1;whiteSpace=wrap;html=1;fontSize=18;fontStyle=1;fillColor=#e3c800;strokeColor=#B09500;fontColor=#000000;shadow=1;glass=0;sketch=0;" vertex="1" parent="1">
          <mxGeometry x="493" y="383" width="51" height="44" as="geometry" />
        </mxCell>
        <mxCell id="YC4KUCPlz97BvsWAq6QE-64" value="设备统计" style="rounded=1;whiteSpace=wrap;html=1;fontSize=18;fontStyle=1;fillColor=#e3c800;strokeColor=#B09500;fontColor=#000000;shadow=1;glass=0;sketch=0;" vertex="1" parent="1">
          <mxGeometry x="553.5" y="383" width="47" height="44" as="geometry" />
        </mxCell>
        <mxCell id="YC4KUCPlz97BvsWAq6QE-65" value="用户分析" style="rounded=1;whiteSpace=wrap;html=1;fontSize=18;fontStyle=1;fillColor=#e3c800;strokeColor=#B09500;fontColor=#000000;shadow=1;glass=0;sketch=0;" vertex="1" parent="1">
          <mxGeometry x="554" y="435" width="47" height="44" as="geometry" />
        </mxCell>
        <mxCell id="YC4KUCPlz97BvsWAq6QE-66" value="用户画像" style="rounded=1;whiteSpace=wrap;html=1;fontSize=18;fontStyle=1;fillColor=#e3c800;strokeColor=#B09500;fontColor=#000000;shadow=1;glass=0;sketch=0;" vertex="1" parent="1">
          <mxGeometry x="493" y="435" width="50" height="44" as="geometry" />
        </mxCell>
        <mxCell id="YC4KUCPlz97BvsWAq6QE-67" value="运营" style="verticalAlign=top;fontStyle=1;fontSize=21;shadow=1;rounded=1;glass=0;sketch=0;fillColor=#fff2cc;strokeColor=#d6b656;" vertex="1" parent="1">
          <mxGeometry x="620" y="340" width="121" height="150.88" as="geometry" />
        </mxCell>
        <mxCell id="YC4KUCPlz97BvsWAq6QE-68" value="推送运营" style="rounded=1;whiteSpace=wrap;html=1;fontSize=18;fontStyle=1;fillColor=#e3c800;strokeColor=#B09500;fontColor=#000000;shadow=1;glass=0;sketch=0;" vertex="1" parent="1">
          <mxGeometry x="629" y="383" width="48" height="44" as="geometry" />
        </mxCell>
        <mxCell id="YC4KUCPlz97BvsWAq6QE-69" value="用户管理" style="rounded=1;whiteSpace=wrap;html=1;fontSize=18;fontStyle=1;fillColor=#e3c800;strokeColor=#B09500;fontColor=#000000;shadow=1;glass=0;sketch=0;" vertex="1" parent="1">
          <mxGeometry x="687.5" y="383" width="47" height="44" as="geometry" />
        </mxCell>
        <mxCell id="YC4KUCPlz97BvsWAq6QE-70" value="用户反馈" style="rounded=1;whiteSpace=wrap;html=1;fontSize=18;fontStyle=1;fillColor=#e3c800;strokeColor=#B09500;fontColor=#000000;shadow=1;glass=0;sketch=0;" vertex="1" parent="1">
          <mxGeometry x="629" y="435" width="46" height="44" as="geometry" />
        </mxCell>
        <mxCell id="YC4KUCPlz97BvsWAq6QE-85" style="edgeStyle=none;rounded=0;sketch=0;orthogonalLoop=1;jettySize=auto;html=1;entryX=0.321;entryY=0.831;entryDx=0;entryDy=0;entryPerimeter=0;shadow=1;fontSize=19;strokeWidth=3;" edge="1" parent="1" source="YC4KUCPlz97BvsWAq6QE-78" target="YC4KUCPlz97BvsWAq6QE-77">
          <mxGeometry relative="1" as="geometry" />
        </mxCell>
        <mxCell id="YC4KUCPlz97BvsWAq6QE-87" value="控制设备" style="edgeLabel;html=1;align=center;verticalAlign=middle;resizable=0;points=[];fontSize=19;fontStyle=1" vertex="1" connectable="0" parent="YC4KUCPlz97BvsWAq6QE-85">
          <mxGeometry x="-0.2179" y="1" relative="1" as="geometry">
            <mxPoint as="offset" />
          </mxGeometry>
        </mxCell>
        <mxCell id="YC4KUCPlz97BvsWAq6QE-78" value="" style="ellipse;shape=cloud;whiteSpace=wrap;html=1;rounded=1;glass=0;sketch=0;fontSize=17;fillColor=#dae8fc;strokeColor=#6c8ebf;shadow=1;" vertex="1" parent="1">
          <mxGeometry x="270" y="596" width="446" height="211" as="geometry" />
        </mxCell>
        <mxCell id="YC4KUCPlz97BvsWAq6QE-80" value="鲲鹭云" style="text;html=1;fillColor=#ffe6cc;align=center;verticalAlign=middle;whiteSpace=wrap;rounded=1;glass=1;sketch=0;fontSize=20;fontStyle=1;shadow=1;" vertex="1" parent="1">
          <mxGeometry x="771" y="125" width="102" height="37" as="geometry" />
        </mxCell>
        <mxCell id="YC4KUCPlz97BvsWAq6QE-81" value="设备控制" style="rounded=1;whiteSpace=wrap;html=1;fontSize=18;fontStyle=1;fillColor=#dae8fc;strokeColor=#6c8ebf;shadow=1;glass=0;sketch=0;" vertex="1" parent="1">
          <mxGeometry x="362" y="685" width="92" height="54" as="geometry" />
        </mxCell>
        <mxCell id="YC4KUCPlz97BvsWAq6QE-82" value="数据分析" style="rounded=1;whiteSpace=wrap;html=1;fontSize=18;fontStyle=1;fillColor=#dae8fc;strokeColor=#6c8ebf;shadow=1;glass=0;sketch=0;" vertex="1" parent="1">
          <mxGeometry x="471" y="686" width="83" height="52" as="geometry" />
        </mxCell>
        <mxCell id="YC4KUCPlz97BvsWAq6QE-83" value="。。。" style="rounded=1;whiteSpace=wrap;html=1;fontSize=18;fontStyle=1;fillColor=#dae8fc;strokeColor=#6c8ebf;shadow=1;glass=0;sketch=0;" vertex="1" parent="1">
          <mxGeometry x="568" y="690" width="82" height="50" as="geometry" />
        </mxCell>
        <mxCell id="YC4KUCPlz97BvsWAq6QE-84" value="自建SAAS" style="text;html=1;fillColor=#dae8fc;align=center;verticalAlign=middle;whiteSpace=wrap;rounded=1;glass=1;sketch=0;fontSize=20;fontStyle=1;shadow=1;strokeColor=#6c8ebf;" vertex="1" parent="1">
          <mxGeometry x="641" y="643" width="104" height="40" as="geometry" />
        </mxCell>
      </root>
    </mxGraphModel>
  </diagram>
</mxfile>
